/* XPM */
static const char * tumbi48_xpm[] = {
"48 33 378 2",
"  	c None",
". 	c #201C10",
"+ 	c #1F1C10",
"@ 	c #1F1B10",
"# 	c #272313",
"$ 	c #000000",
"% 	c #2C2814",
"& 	c #3F3E1B",
"* 	c #332F17",
"= 	c #2C2A15",
"- 	c #292614",
"; 	c #211D11",
"> 	c #252112",
", 	c #43411D",
"' 	c #3B3819",
") 	c #363319",
"! 	c #3F3C1B",
"~ 	c #504F21",
"{ 	c #242013",
"] 	c #1F1B0F",
"^ 	c #201D10",
"/ 	c #312E16",
"( 	c #3C3A1A",
"_ 	c #3D3A1B",
": 	c #504F22",
"< 	c #68682A",
"[ 	c #262212",
"} 	c #221E11",
"| 	c #383619",
"1 	c #3E3C1B",
"2 	c #4F4E20",
"3 	c #5E5E26",
"4 	c #626227",
"5 	c #656528",
"6 	c #252212",
"7 	c #231F11",
"8 	c #383618",
"9 	c #46461D",
"0 	c #555522",
"a 	c #575723",
"b 	c #5C5C24",
"c 	c #5F5F26",
"d 	c #626228",
"e 	c #666629",
"f 	c #44411D",
"g 	c #232012",
"h 	c #231F12",
"i 	c #343309",
"j 	c #0C0B02",
"k 	c #211C10",
"l 	c #252111",
"m 	c #3A3919",
"n 	c #48481D",
"o 	c #4E4E1F",
"p 	c #525221",
"q 	c #595924",
"r 	c #5D5D25",
"s 	c #606027",
"t 	c #49481F",
"u 	c #1F1A10",
"v 	c #201C0F",
"w 	c #838110",
"x 	c #787610",
"y 	c #232011",
"z 	c #3C3B19",
"A 	c #44441C",
"B 	c #4C4C1F",
"C 	c #505020",
"D 	c #535321",
"E 	c #5A5A24",
"F 	c #42401C",
"G 	c #3E3B1B",
"H 	c #231E10",
"I 	c #231E11",
"J 	c #262213",
"K 	c #2A2513",
"L 	c #2D2816",
"M 	c #312F18",
"N 	c #201B10",
"O 	c #514642",
"P 	c #78705B",
"Q 	c #867F3A",
"R 	c #E6E511",
"S 	c #F1F111",
"T 	c #CBCA11",
"U 	c #706E10",
"V 	c #211D10",
"W 	c #373716",
"X 	c #3F3F19",
"Y 	c #42421B",
"Z 	c #45451C",
"` 	c #4A4A1E",
" .	c #4D4D1F",
"..	c #515120",
"+.	c #545422",
"@.	c #393719",
"#.	c #242112",
"$.	c #2E2B15",
"%.	c #272312",
"&.	c #302D15",
"*.	c #242011",
"=.	c #4B422C",
"-.	c #453939",
";.	c #D0CDCD",
">.	c #E7E6E6",
",.	c #979229",
"'.	c #EEEE11",
").	c #302F14",
"!.	c #393917",
"~.	c #3C3C18",
"{.	c #40401A",
"].	c #43431B",
"^.	c #47471D",
"/.	c #45441C",
"(.	c #262314",
"_.	c #413F19",
":.	c #525220",
"<.	c #9B9811",
"[.	c #6D6448",
"}.	c #B7B3AB",
"|.	c #7C7559",
"1.	c #CFCC14",
"2.	c #C2C111",
"3.	c #201C11",
"4.	c #262411",
"5.	c #333314",
"6.	c #363616",
"7.	c #3A3A17",
"8.	c #3C3C19",
"9.	c #3E3E19",
"0.	c #403F1A",
"a.	c #3A3918",
"b.	c #242012",
"c.	c #272412",
"d.	c #221D11",
"e.	c #282512",
"f.	c #2F2C15",
"g.	c #302D16",
"h.	c #333117",
"i.	c #2F2B16",
"j.	c #7E7B10",
"k.	c #EDEC11",
"l.	c #C8C612",
"m.	c #EAEA11",
"n.	c #EFEF11",
"o.	c #474017",
"p.	c #2B1F1F",
"q.	c #281F1C",
"r.	c #2C2C12",
"s.	c #303013",
"t.	c #333315",
"u.	c #383817",
"v.	c #2B2914",
"w.	c #242111",
"x.	c #2B2913",
"y.	c #2D2B14",
"z.	c #2E2C15",
"A.	c #2F2C16",
"B.	c #2D2A14",
"C.	c #282513",
"D.	c #999711",
"E.	c #C4C312",
"F.	c #2E241D",
"G.	c #281E1A",
"H.	c #2A2A11",
"I.	c #2E2E12",
"J.	c #313114",
"K.	c #3B3B18",
"L.	c #4B4B1E",
"M.	c #585824",
"N.	c #575724",
"O.	c #4E4D20",
"P.	c #42401B",
"Q.	c #363418",
"R.	c #2D2915",
"S.	c #292514",
"T.	c #C1C011",
"U.	c #787414",
"V.	c #282018",
"W.	c #211F10",
"X.	c #232010",
"Y.	c #2F2D14",
"Z.	c #3D3D19",
"`.	c #4C4C1E",
" +	c #4A4A1D",
".+	c #46451C",
"++	c #43411C",
"@+	c #3D3B1A",
"#+	c #393619",
"$+	c #3C391A",
"%+	c #413F1C",
"&+	c #4C4B1F",
"*+	c #2B2814",
"=+	c #A8A611",
"-+	c #BEBC12",
";+	c #3C331A",
">+	c #2B201F",
",+	c #252213",
"'+	c #232210",
")+	c #201E10",
"!+	c #242211",
"~+	c #2A2A12",
"{+	c #323214",
"]+	c #343415",
"^+	c #3E3D19",
"/+	c #3F3E19",
"(+	c #3A371A",
"_+	c #3B3919",
":+	c #3E3C1A",
"<+	c #48471E",
"[+	c #858310",
"}+	c #D1D011",
"|+	c #D4D411",
"1+	c #443C19",
"2+	c #2A1F1D",
"3+	c #242410",
"4+	c #222010",
"5+	c #2C2B13",
"6+	c #313015",
"7+	c #333215",
"8+	c #343316",
"9+	c #3A3917",
"0+	c #424019",
"a+	c #4B4A1A",
"b+	c #56561C",
"c+	c #69681F",
"d+	c #4F4C20",
"e+	c #3F3920",
"f+	c #423D20",
"g+	c #47431E",
"h+	c #4C4A1D",
"i+	c #888611",
"j+	c #272217",
"k+	c #242310",
"l+	c #252410",
"m+	c #241F14",
"n+	c #221D14",
"o+	c #2E2A12",
"p+	c #3C3A15",
"q+	c #4A4818",
"r+	c #5C5A1B",
"s+	c #68671E",
"t+	c #777621",
"u+	c #838324",
"v+	c #413C1F",
"w+	c #3E3920",
"x+	c #585323",
"y+	c #787624",
"z+	c #4A4620",
"A+	c #4D4A1E",
"B+	c #282413",
"C+	c #2A1F1F",
"D+	c #2B201E",
"E+	c #29211B",
"F+	c #2A201E",
"G+	c #383318",
"H+	c #C5C42A",
"I+	c #B2B126",
"J+	c #8D8B21",
"K+	c #62601A",
"L+	c #423F15",
"M+	c #312D13",
"N+	c #221E10",
"O+	c #221D12",
"P+	c #353115",
"Q+	c #262114",
"R+	c #272314",
"S+	c #282414",
"T+	c #281F1A",
"U+	c #999822",
"V+	c #F1F130",
"W+	c #F0F030",
"X+	c #817A25",
"Y+	c #291E1C",
"Z+	c #261F17",
"`+	c #271E1A",
" @	c #423B1C",
".@	c #57511D",
"+@	c #261D19",
"@@	c #372F1A",
"#@	c #413E15",
"$@	c #2B2514",
"%@	c #0B0808",
"&@	c #1D1515",
"*@	c #070505",
"=@	c #64601B",
"-@	c #4E4422",
";@	c #272118",
">@	c #6D6625",
",@	c #5C5323",
"'@	c #675F24",
")@	c #443920",
"!@	c #393514",
"~@	c #040303",
"{@	c #060404",
"]@	c #010101",
"^@	c #73711D",
"/@	c #CAC72C",
"(@	c #282118",
"_@	c #969028",
":@	c #403521",
"<@	c #827B26",
"[@	c #31251F",
"}@	c #473D20",
"|@	c #040302",
"1@	c #565513",
"2@	c #7B7426",
"3@	c #272117",
"4@	c #29201B",
"5@	c #B8B42B",
"6@	c #9D9829",
"7@	c #EAEA2F",
"8@	c #3C361C",
"9@	c #181805",
"0@	c #CCCC29",
"a@	c #E9E82F",
"b@	c #362A20",
"c@	c #262313",
"d@	c #322720",
"e@	c #B8B52B",
"f@	c #DEDD2E",
"g@	c #2C211F",
"h@	c #2F2B18",
"i@	c #302E0F",
"j@	c #2B2B09",
"k@	c #EDED2F",
"l@	c #A5A12A",
"m@	c #2A211B",
"n@	c #272116",
"o@	c #706825",
"p@	c #777025",
"q@	c #D8D62E",
"r@	c #C8C52C",
"s@	c #2D211F",
"t@	c #2A201D",
"u@	c #141307",
"v@	c #434210",
"w@	c #ECEC2F",
"x@	c #574E23",
"y@	c #272215",
"z@	c #B3AF2A",
"A@	c #35291F",
"B@	c #584F23",
"C@	c #857E27",
"D@	c #3F351F",
"E@	c #030301",
"F@	c #25230C",
"G@	c #807D21",
"H@	c #29201C",
"I@	c #4D4322",
"J@	c #AAA52A",
"K@	c #EFEE2F",
"L@	c #3C3120",
"M@	c #2B211C",
"N@	c #030201",
"O@	c #14100C",
"P@	c #241A1A",
"Q@	c #2C201F",
"R@	c #C4C12C",
"S@	c #625923",
"T@	c #3A2F21",
"U@	c #EBEB30",
"V@	c #B7B42B",
"W@	c #332A1B",
"X@	c #2C201E",
"Y@	c #0B0A06",
"Z@	c #292512",
"`@	c #999724",
" #	c #2D2220",
".#	c #857F27",
"+#	c #D2D22B",
"@#	c #473F1E",
"##	c #332B1B",
"$#	c #020201",
"%#	c #16140A",
"&#	c #2C2615",
"*#	c #3A3616",
"=#	c #3B3715",
"                                                      . + @                                     ",
"                                                  . #       @                                   ",
"                        $                     . %   & * = - . @                                 ",
"                          $               ; > , ' ) ! ~     ; { ]                               ",
"              $       $                 ^ / ( _ : <       #   [ ]                               ",
"                  $                   } | 1 2 3 4 5     ) 6   +                                 ",
"            $ $                   . 7 8 9 0 a b c d e f g   h                                   ",
"          i j                   k l m n o p 0 q r s t 7   7 k             u k v . v . . @       ",
"          w x                 + y z A n B C D a E F h G H v ] ; . v I J K L M           { . N   ",
"    O P Q R S T U             V W X Y Z `  ...+.@.#.$.k . %.&.'                           *.@   ",
"  =.-.;.>.,.S S '.w         . ).!.~.{.].9 ^./.$.[ (.> _.:.                              . ]     ",
"  <.[.}.|.1.S S S 2.      3.4.5.6.7.8.9.0.a.b.c.d.e.$.f.f.g.g.h.| 1               i.V +         ",
"j.S k.l.m.S S S S n.o.p.q.. r.s.t.6.!.u.v.} V w.x.y.$.z.$.f.A.B.C.#.; @ @ ; *.V @ .             ",
"D.S S S S S S S S E.F.p.G.. H.I.J.J.e.V ; y.K.{.Y Z n L. .C D 0 M.N.O.P.Q.g.R.S.7 . @ .         ",
"  T.S S S S S S S U.p.p.V.@ W.X.V . w.Y.W K.Z.{.].Z n ` `. +.+++@+#+$+%+&+            *+; @ @   ",
"    =+S S S S S -+;+>+,+'+@ )+!+~+s.{+]+u.a.~.^+/+/+^+( (+_+:+P.<+                          ; @ ",
"      [+}+S S |+1+p.2+3+3+4++ @ ^ 4.5+6+7+8+9+0+a+b+c+d+e+f+g+h+                            . @ ",
"          [+i+  p.p.p.j+k+3+3+l+m+n+} . o+p+q+r+s+t+u+v+w+e+x+y+z+A+                  B+; @ @   ",
"                C+p.p.p.D+E+E+F+p.p.G+H+I+J+K+L+M+N+@ @ O+{ % P+Q+R+S+6 6 7 ; @ @ @ . @         ",
"                  p.p.p.p.p.p.p.p.p.T+U+V+V+V+V+V+W+X+Y+Z+`+ @.@+@+@@@#@$@                      ",
"                      %@C+p.&@C+p.*@  =@V+V+V+V+V+V+-@p.;@p.>@,@p.p.'@V+)@!@                    ",
"                      $     ~@{@    ]@^@V+V+V+V+V+/@p.2+(@p._@:@p.p.<@V+[@}@                    ",
"                      $       $     |@1@V+V+V+V+V+2@p.3@4@p.5@p.p.p.6@7@p.p.8@                  ",
"                      $       $ $     9@0@V+V+V+a@b@p.c@>+d@5@p.p.p.e@f@p.p.g@h@                ",
"                        $       $     i@j@k@V+V+l@p.m@n@p.o@p@p.p.p.q@r@p.p.s@t@                ",
"                        $         $     u@v@w@V+x@p.y@t@p.z@A@p.p.B@V+C@p.p.D@E+4@              ",
"                          $       $       E@F@G@p.p.H@p.I@J@p.p.p.J@K@L@p.s@G+  M@D+            ",
"                          $         $       $ N@O@P@p.Q@R@S@p.p.T@U@V@p.p.W@        X@          ",
"                          $           $ $         |@Y@Z@`@ #p.p..#+#@###                        ",
"                                          $ $         ]@$#%#&###*#=#                            ",
"                                              $ $           $ $                                 ",
"                                                  $                                             ",
"                                                                                                "};
